<svg width="640" height="640" viewBox="0 0 640 640" fill="none" xmlns="http://www.w3.org/2000/svg">
<g clip-path="url(#clip0_254_1150)">
<path d="M179.457 317.676C214.944 150.799 209.162 15.5295 166.554 15.5295C105.863 15.5295 47.9328 163.975 25.1477 317.676C2.23611 471.377 18.4729 619.823 89.4922 619.823C160.512 619.823 246.852 484.553 282.34 317.676C317.827 150.799 312.045 15.5295 269.437 15.5295C226.828 15.5295 163.518 150.799 128.03 317.676C92.5432 484.553 122.479 655.2 192.375 619.823C257.255 586.981 297.78 458.91 336.527 317.676C374.782 178.255 405.21 19.2998 402.739 15.5295C400.797 12.5606 371.032 106.003 335.917 289.918C321.808 363.826 278.798 573.673 319.591 619.823C357.921 656.435 421.112 435.907 448.265 328.186C471.169 237.318 506.79 15.5295 487.123 15.5295C466.057 15.5295 411.021 249.365 398.639 317.676C386.257 385.987 337.308 619.823 408.417 619.823C479.525 619.823 565.777 484.553 601.264 317.676C636.752 150.799 630.97 15.5295 588.361 15.5295" stroke="white" stroke-width="29.228" stroke-linecap="round" stroke-linejoin="round"/>
</g>
<defs>
<clipPath id="clip0_254_1150">
<rect width="640" height="640" fill="white"/>
</clipPath>
</defs>
</svg>
