<svg width="64" height="64" viewBox="0 0 64 64" fill="none" xmlns="http://www.w3.org/2000/svg">
<path d="M19.9788 31.801C23.0141 17.5272 22.5196 5.95704 18.8751 5.95704C13.6839 5.95704 8.72892 18.6543 6.78001 31.801C4.82028 44.9476 6.20908 57.6449 12.2837 57.6449C18.3583 57.6449 25.7434 46.0747 28.7788 31.801C31.8142 17.5272 31.3196 5.95704 27.6751 5.95704C24.0306 5.95704 18.6154 17.5272 15.58 31.801C12.5446 46.0747 15.1052 60.6709 21.0837 57.6449C26.6332 54.8358 30.0995 43.8813 33.4136 31.801C36.6858 19.8757 39.2884 6.27953 39.0771 5.95704C38.9109 5.70309 36.365 13.6956 33.3614 29.4267C32.1547 35.7483 28.4758 53.6975 31.965 57.6449C35.2435 60.7765 40.6485 41.9138 42.9711 32.6999C44.9302 24.9276 47.977 5.95704 46.2948 5.95704C44.4929 5.95704 39.7855 25.958 38.7264 31.801C37.6673 37.6439 33.4805 57.6449 39.5627 57.6449C45.6449 57.6449 53.0224 46.0747 56.0578 31.801C59.0932 17.5272 58.5986 5.95704 54.9541 5.95704" stroke="black" stroke-width="2.5" stroke-linecap="round" stroke-linejoin="round"/>
</svg>
